<svg width="24" height="18" viewBox="0 0 24 18" fill="none" xmlns="http://www.w3.org/2000/svg">
<path d="M20.3303 1.50748C18.7767 0.803241 17.1155 0.291408 15.3789 0C15.1656 0.373599 14.9164 0.876089 14.7447 1.27584C12.8985 1.00685 11.0693 1.00685 9.25715 1.27584C9.08539 0.876089 8.83051 0.373599 8.61537 0C6.8768 0.291408 5.21375 0.805109 3.66019 1.51121C0.526644 6.09901 -0.322811 10.5729 0.101917 14.9832C2.18025 16.4869 4.1944 17.4004 6.17458 17.9981C6.66349 17.3462 7.09954 16.6532 7.47519 15.9228C6.75976 15.6594 6.07454 15.3344 5.42706 14.957C5.59883 14.8338 5.76684 14.7049 5.92918 14.5723C9.87824 16.3618 14.1689 16.3618 18.0708 14.5723C18.2349 14.7049 18.403 14.8338 18.5729 14.957C17.9235 15.3362 17.2364 15.6613 16.5209 15.9247C16.8966 16.6532 17.3308 17.3481 17.8215 18C19.8036 17.4022 21.8196 16.4888 23.898 14.9832C24.3964 9.87052 23.0466 5.43774 20.3303 1.50748ZM8.01318 12.2709C6.82772 12.2709 5.85556 11.1986 5.85556 9.89294C5.85556 8.58719 6.80695 7.51311 8.01318 7.51311C9.21942 7.51311 10.1915 8.58532 10.1708 9.89294C10.1727 11.1986 9.21942 12.2709 8.01318 12.2709ZM15.9868 12.2709C14.8013 12.2709 13.8291 11.1986 13.8291 9.89294C13.8291 8.58719 14.7805 7.51311 15.9868 7.51311C17.1929 7.51311 18.1651 8.58532 18.1444 9.89294C18.1444 11.1986 17.1929 12.2709 15.9868 12.2709Z" fill="black"/>
</svg>