<svg width="24" height="21" viewBox="0 0 24 21" fill="none" xmlns="http://www.w3.org/2000/svg">
<path d="M23.9996 10.6588C23.9458 9.23057 22.7276 8.11533 21.272 8.16382C20.627 8.18586 20.0134 8.44594 19.5476 8.88233C17.4963 7.50703 15.0866 6.75325 12.6098 6.70036L13.7788 1.16828L17.6351 1.96614C17.7426 2.94031 18.6294 3.64559 19.6193 3.5398C20.6091 3.43401 21.3257 2.56122 21.2182 1.58705C21.1107 0.612871 20.2239 -0.092413 19.2341 0.0133797C18.6653 0.070684 18.1547 0.396878 17.8725 0.881761L13.4563 0.0133797C13.1562 -0.0527408 12.8562 0.132396 12.789 0.432142C12.789 0.43655 12.789 0.43655 12.789 0.440958L11.4588 6.59456C8.95059 6.63424 6.50961 7.39242 4.43141 8.77654C3.3744 7.79796 1.70826 7.84644 0.713952 8.89115C-0.280357 9.93144 -0.231089 11.5712 0.830403 12.5498C1.03643 12.7394 1.27381 12.9025 1.53806 13.0171C1.52015 13.2771 1.52015 13.5372 1.53806 13.7973C1.53806 17.7689 6.24088 21 12.041 21C17.8411 21 22.544 17.7733 22.544 13.7973C22.5619 13.5372 22.5619 13.2771 22.544 13.0171C23.4487 12.5719 24.0175 11.655 23.9996 10.6588ZM5.9811 12.4352C5.9811 11.4566 6.79178 10.6588 7.78609 10.6588C8.78039 10.6588 9.59107 11.4566 9.59107 12.4352C9.59107 13.4138 8.78039 14.2116 7.78609 14.2116C6.7873 14.2028 5.9811 13.4138 5.9811 12.4352ZM16.4482 17.3105C15.1673 18.2582 13.5997 18.7431 11.9962 18.677C10.3928 18.7431 8.82518 18.2582 7.54423 17.3105C7.37403 17.1077 7.40538 16.8036 7.61141 16.6361C7.79056 16.4906 8.04586 16.4906 8.22949 16.6361C9.31338 17.4163 10.6346 17.813 11.9783 17.7513C13.322 17.8218 14.6477 17.4427 15.745 16.6713C15.9421 16.4818 16.2646 16.4862 16.4572 16.6801C16.6498 16.8741 16.6453 17.1915 16.4482 17.381V17.3105ZM16.1257 14.2733C15.1314 14.2733 14.3208 13.4755 14.3208 12.4969C14.3208 11.5183 15.1314 10.7205 16.1257 10.7205C17.12 10.7205 17.9307 11.5183 17.9307 12.4969C17.971 13.4755 17.1962 14.2998 16.2019 14.3395C16.1705 14.3395 16.1437 14.3395 16.1123 14.3395L16.1257 14.2733Z" fill="black"/>
</svg>